<svg xmlns="http://www.w3.org/2000/svg" width="273" height="166" viewBox="0 0 273 166"><defs><style>.a{fill:#052253;}.b{fill:#03dbd3;}</style></defs><title>lawyer-tools-logo-default</title><path class="a" d="M38.45,27.81a14.14,14.14,0,0,0-3.8.57A2.61,2.61,0,0,0,33,30.05a13,13,0,0,0-.43,4V69.9a13,13,0,0,0,.43,4,2.48,2.48,0,0,0,1.63,1.63,12.87,12.87,0,0,0,3.8.4h5.28a14.64,14.64,0,0,0,6.83-1.27A7.47,7.47,0,0,0,54,70.56a32.74,32.74,0,0,0,1.59-8.18h1.66c-.14,1.5-.21,3.47-.21,5.93,0,2.75.16,5.84.5,9.26q-4.92-.21-16.56-.21-13.89,0-21,.21V76.13a14.55,14.55,0,0,0,3.8-.58,2.63,2.63,0,0,0,1.63-1.67,13.38,13.38,0,0,0,.43-4V34a13.38,13.38,0,0,0-.43-4,2.63,2.63,0,0,0-1.63-1.67,14.21,14.21,0,0,0-3.8-.57V26.36c2,.14,5.11.22,9.26.22,3.86,0,6.92-.08,9.19-.22Z"/><path class="a" d="M64.52,75.8a8.72,8.72,0,0,1-2.2-6.33,8,8,0,0,1,1.77-5.35,13.37,13.37,0,0,1,4.19-3.33,51.32,51.32,0,0,1,6.41-2.6,33.22,33.22,0,0,0,6-2.54,3.49,3.49,0,0,0,2-3.11V48.06c0-2.8-.59-4.71-1.77-5.75a7.24,7.24,0,0,0-5-1.56q-5.07,0-7.17,2.61a4.54,4.54,0,0,1,2.43,1.52,4.32,4.32,0,0,1,1,2.89A3.66,3.66,0,0,1,71,50.63a4.24,4.24,0,0,1-3,1,3.68,3.68,0,0,1-3-1.27,4.79,4.79,0,0,1-1-3.07,4.87,4.87,0,0,1,.83-2.9,10.34,10.34,0,0,1,2.5-2.31,15.06,15.06,0,0,1,4.41-2,20.51,20.51,0,0,1,5.86-.79q5.64,0,8.54,2.67a8.2,8.2,0,0,1,2.42,4,25.26,25.26,0,0,1,.61,6.18V72.29a5,5,0,0,0,.51,2.61,1.9,1.9,0,0,0,1.74.79,3.38,3.38,0,0,0,1.62-.4,9.19,9.19,0,0,0,1.63-1.12l.8,1.23a17.15,17.15,0,0,1-3.22,2.06,8.11,8.11,0,0,1-3.37.62c-2.31,0-3.93-.58-4.84-1.74a7.33,7.33,0,0,1-1.38-4.7,12.6,12.6,0,0,1-5,5,14,14,0,0,1-6.36,1.41Q66.73,78.08,64.52,75.8Zm18.12-6.11V55.51a4.85,4.85,0,0,1-1.81,1.66q-1.15.66-3.54,1.74a32.81,32.81,0,0,0-4.45,2.21A9.8,9.8,0,0,0,69.91,64a8.08,8.08,0,0,0-1.23,4.63,6.87,6.87,0,0,0,1.59,4.92,5.54,5.54,0,0,0,4.2,1.67Q79.24,75.19,82.64,69.69Z"/><path class="a" d="M150,40.32v1.45a4.72,4.72,0,0,0-2.68,1.33,9.22,9.22,0,0,0-2,3.73L134.8,77.93h-1.23L122.14,48.86,111.79,77.93h-1.23l-11.86-32a7.59,7.59,0,0,0-2.06-3.29,3.58,3.58,0,0,0-2.13-.76V40.32a42,42,0,0,0,6.36.43c2.41,0,5.55-.14,9.4-.43v1.52a12.41,12.41,0,0,0-3.87.43c-.79.29-1.19,1-1.19,2.24a11,11,0,0,0,.72,3.4l7.24,20.84L123.58,40h1.67l11.07,29.22,6.8-20.68a10.89,10.89,0,0,0,.65-3.26,2.79,2.79,0,0,0-1.23-2.53,9.22,9.22,0,0,0-4.13-1V40.32c2.56.14,4.58.22,6.08.22C146.61,40.54,148.44,40.46,150,40.32Z"/><path class="a" d="M186,40.32v1.45a4,4,0,0,0-2.57,1.3,11.25,11.25,0,0,0-2.13,3.76l-11.87,31.1L167,84.23a12.87,12.87,0,0,1-3.12,5.06,6.22,6.22,0,0,1-2.6,1.45,10.94,10.94,0,0,1-3,.43A5.26,5.26,0,0,1,154.69,90a3.92,3.92,0,0,1-1.38-3.18,3.79,3.79,0,0,1,1-2.78,3.72,3.72,0,0,1,2.82-1,3.91,3.91,0,0,1,2.64.9,3.13,3.13,0,0,1,1.05,2.5,3.49,3.49,0,0,1-2,3.25,1,1,0,0,0,.44.08c2.65,0,4.7-1.89,6.15-5.65L168,77.5,154.91,45.89a8.42,8.42,0,0,0-2.46-3.26,4.52,4.52,0,0,0-2.46-.79V40.32a51.59,51.59,0,0,0,7.09.43q3.61,0,9.4-.43v1.52a12.07,12.07,0,0,0-3.8.43,2,2,0,0,0-1.19,2.1,9.15,9.15,0,0,0,.87,3.54L171,69.47l8-20.9a10.63,10.63,0,0,0,.79-3.33,2.67,2.67,0,0,0-1.3-2.46,9.57,9.57,0,0,0-4.12-1V40.32c2.55.14,4.58.22,6.07.22C182.63,40.54,184.47,40.46,186,40.32Z"/><path class="a" d="M218.49,68.89a14.44,14.44,0,0,1-4.88,6.84A13.46,13.46,0,0,1,205,78.58a16.38,16.38,0,0,1-8.89-2.35,15.16,15.16,0,0,1-5.76-6.58,22.89,22.89,0,0,1-2-9.8,27,27,0,0,1,2-10.92,16.19,16.19,0,0,1,5.72-7.13,15,15,0,0,1,8.6-2.49q6.51,0,10,3.94t3.51,12H195.56a42.41,42.41,0,0,0-.22,4.63,20.52,20.52,0,0,0,1.56,8.32A13.26,13.26,0,0,0,201,73.63a8.87,8.87,0,0,0,5.39,1.92,11.43,11.43,0,0,0,6.15-1.67A12.41,12.41,0,0,0,217,68.31ZM198.52,44q-2.46,3.33-3,9.84h15.77a20.88,20.88,0,0,0-1.63-9.41c-1.18-2.5-2.93-3.76-5.25-3.76A7.17,7.17,0,0,0,198.52,44Z"/><path class="a" d="M250.93,41A5.26,5.26,0,0,1,252.78,45a4.87,4.87,0,0,1-1.12,3.22,3.74,3.74,0,0,1-3,1.34,3.93,3.93,0,0,1-2.71-1,3.53,3.53,0,0,1-1.12-2.75,4.5,4.5,0,0,1,2.46-3.91,1.75,1.75,0,0,0-1.52-.72,7.3,7.3,0,0,0-5.14,2.2A15.4,15.4,0,0,0,237,48.78a15.94,15.94,0,0,0-1.31,6V70.12q0,3.33,1.92,4.63a10.3,10.3,0,0,0,5.75,1.3v1.52l-1.73-.07c-4.92-.14-8.06-.22-9.41-.22s-4.1.1-8.53.29V76.05c2,0,3.44-.37,4.26-1.12s1.23-2.11,1.23-4.08V48.2A7.68,7.68,0,0,0,228,43.36c-.82-1-2.24-1.52-4.26-1.52V40.32c1.54.14,3,.22,4.48.22a23.42,23.42,0,0,0,7.52-1v9a17.13,17.13,0,0,1,4.16-6.44,8.85,8.85,0,0,1,6.33-2.82A6.8,6.8,0,0,1,250.93,41Z"/><path class="b" d="M59.72,93.88H42.36V87.59H84.24v6.29H66.88v44.34H59.72Z"/><path class="b" d="M92.2,136.12a18.26,18.26,0,0,1-7.13-7,21.09,21.09,0,0,1,0-20.18A18.1,18.1,0,0,1,92.2,102a20.93,20.93,0,0,1,10.27-2.5A20.72,20.72,0,0,1,112.7,102a18.13,18.13,0,0,1,7.09,6.94,21.09,21.09,0,0,1,0,20.18,18.29,18.29,0,0,1-7.09,7,20.53,20.53,0,0,1-10.23,2.54A20.74,20.74,0,0,1,92.2,136.12Zm16.89-5.24a12,12,0,0,0,4.59-4.77,15.82,15.82,0,0,0,0-14.11,11.78,11.78,0,0,0-4.59-4.74,14,14,0,0,0-13.24,0A12,12,0,0,0,91.22,112a15.49,15.49,0,0,0,0,14.11,12.21,12.21,0,0,0,4.63,4.77,13.74,13.74,0,0,0,13.24,0Z"/><path class="b" d="M138.13,136.12a18.26,18.26,0,0,1-7.13-7A21.16,21.16,0,0,1,131,109a18.1,18.1,0,0,1,7.13-6.94,22.28,22.28,0,0,1,20.51,0,18.26,18.26,0,0,1,7.09,6.94,21.16,21.16,0,0,1,0,20.18,18.43,18.43,0,0,1-7.09,7,22,22,0,0,1-20.51,0ZM155,130.88a12,12,0,0,0,4.59-4.77,15.74,15.74,0,0,0,0-14.11,11.78,11.78,0,0,0-4.59-4.74,14,14,0,0,0-13.24,0,12,12,0,0,0-4.63,4.74,15.49,15.49,0,0,0,0,14.11,12.21,12.21,0,0,0,4.63,4.77,13.74,13.74,0,0,0,13.24,0Z"/><path class="b" d="M177.91,84.55h7v53.67h-7Z"/><path class="b" d="M200.05,137.39a19.77,19.77,0,0,1-6.8-3.22l2.89-5.5a20.88,20.88,0,0,0,6.15,2.9,25.43,25.43,0,0,0,7.31,1.08q9.1,0,9.11-5.21a3.36,3.36,0,0,0-1.23-2.74,7.8,7.8,0,0,0-3.07-1.49q-1.84-.46-5.25-1a51.17,51.17,0,0,1-7.56-1.66,11.66,11.66,0,0,1-5-3.18,8.86,8.86,0,0,1-2.1-6.3,9.83,9.83,0,0,1,4.34-8.35q4.34-3.15,11.64-3.15a32.39,32.39,0,0,1,7.67.94,20.73,20.73,0,0,1,6.3,2.53l-3,5.5a20,20,0,0,0-11.07-3,12.8,12.8,0,0,0-6.72,1.45,4.36,4.36,0,0,0-2.32,3.83,3.64,3.64,0,0,0,1.3,3,8.18,8.18,0,0,0,3.22,1.59q1.92.51,5.39,1.16a59,59,0,0,1,7.49,1.7,11.23,11.23,0,0,1,4.88,3.07,8.59,8.59,0,0,1,2,6.08,9.59,9.59,0,0,1-4.45,8.28q-4.46,3.07-12.12,3.08A32.21,32.21,0,0,1,200.05,137.39Z"/></svg>