<?xml version="1.0" encoding="utf-8"?><!DOCTYPE svg PUBLIC "-//W3C//DTD SVG 1.1//EN" "http://www.w3.org/Graphics/SVG/1.1/DTD/svg11.dtd" [<!ENTITY ns_flows "http://ns.adobe.com/Flows/1.0/">]><svg version="1.1" xmlns="http://www.w3.org/2000/svg" xmlns:xlink="http://www.w3.org/1999/xlink" xmlns:a="http://ns.adobe.com/AdobeSVGViewerExtensions/3.0/" x="0px" y="0px" width="400px" height="48px" viewBox="-2.13 -2.471 400 48" overflow="visible" enable-background="new -2.13 -2.471 400 48" xml:space="preserve"><defs></defs><path opacity="0.2" fill="#71A2B9" d="M12.075,13.964c-1.746,0-3.363,0.3-4.85,0.898c-1.485,0.6-2.764,1.431-3.83,2.497c-1.068,1.065-1.901,2.328-2.497,3.785C0.298,22.598,0,24.182,0,25.894c0,1.713,0.298,3.295,0.899,4.752c0.595,1.455,1.428,2.714,2.497,3.782c1.066,1.068,2.345,1.899,3.83,2.496c1.486,0.599,3.104,0.9,4.85,0.9c1.777,0,3.409-0.302,4.899-0.9c1.485-0.597,2.763-1.428,3.829-2.496c1.07-1.068,1.9-2.327,2.5-3.782c0.595-1.457,0.896-3.039,0.896-4.752c0-1.712-0.301-3.296-0.896-4.751c-0.6-1.457-1.429-2.719-2.5-3.785c-1.066-1.066-2.344-1.897-3.829-2.497C15.484,14.264,13.852,13.964,12.075,13.964 M12.075,35.013c-1.327,0-2.515-0.237-3.562-0.705c-1.053-0.467-1.95-1.118-2.692-1.939c-0.745-0.827-1.317-1.794-1.723-2.91c-0.404-1.116-0.605-2.303-0.605-3.564c0-1.259,0.201-2.447,0.605-3.565c0.405-1.114,0.978-2.083,1.723-2.911c0.743-0.822,1.64-1.478,2.692-1.962c1.047-0.486,2.235-0.729,3.562-0.729c1.325,0,2.522,0.243,3.589,0.729c1.066,0.484,1.969,1.14,2.717,1.962c0.742,0.829,1.314,1.797,1.719,2.911c0.404,1.118,0.606,2.307,0.606,3.565c0,1.262-0.202,2.449-0.606,3.564c-0.405,1.116-0.978,2.083-1.719,2.91c-0.748,0.821-1.651,1.472-2.717,1.939C14.598,34.775,13.4,35.013,12.075,35.013"/><path fill="#211E24" d="M117.084,19.736c-0.551-0.872-1.351-1.592-2.399-2.16c-1.053-0.565-2.191-0.85-3.42-0.85c-1.325,0-2.522,0.236-3.589,0.706c-1.067,0.468-1.98,1.114-2.741,1.939c-0.758,0.825-1.341,1.794-1.745,2.906c-0.404,1.12-0.604,2.321-0.604,3.616c0,1.293,0.201,2.489,0.604,3.588c0.404,1.1,0.977,2.062,1.722,2.886c0.744,0.824,1.648,1.47,2.715,1.939c1.066,0.47,2.262,0.704,3.588,0.704c1.455,0,2.683-0.273,3.688-0.825c0.999-0.548,1.825-1.262,2.47-2.133l2.474,1.84c-0.97,1.197-2.157,2.153-3.563,2.861c-1.407,0.711-3.096,1.068-5.068,1.068c-1.842,0-3.509-0.3-4.994-0.898c-1.487-0.597-2.758-1.428-3.806-2.496c-1.053-1.068-1.867-2.327-2.45-3.785c-0.582-1.455-0.875-3.037-0.875-4.75c0-1.714,0.292-3.296,0.875-4.751c0.583-1.457,1.397-2.717,2.45-3.785c1.048-1.066,2.319-1.899,3.806-2.497c1.485-0.598,3.152-0.9,4.994-0.9c1.519,0,3.064,0.335,4.631,1c1.569,0.66,2.838,1.639,3.808,2.93L117.084,19.736z"/><path fill="#211E24" d="M144.049,25.894c0-1.259-0.206-2.447-0.607-3.563c-0.404-1.119-0.979-2.087-1.722-2.91c-0.744-0.826-1.647-1.482-2.718-1.966c-1.066-0.483-2.262-0.729-3.588-0.729s-2.515,0.245-3.563,0.729c-1.05,0.484-1.949,1.14-2.691,1.966c-0.745,0.822-1.318,1.791-1.722,2.91c-0.405,1.116-0.607,2.304-0.607,3.563c0,1.262,0.202,2.446,0.607,3.564c0.404,1.116,0.977,2.085,1.722,2.91c0.742,0.826,1.641,1.47,2.691,1.939c1.049,0.47,2.237,0.705,3.563,0.705s2.521-0.235,3.588-0.705c1.07-0.47,1.974-1.113,2.718-1.939c0.743-0.825,1.318-1.794,1.722-2.91C143.843,28.34,144.049,27.156,144.049,25.894 M147.539,25.894c0,1.713-0.3,3.295-0.897,4.75c-0.598,1.458-1.43,2.717-2.499,3.785c-1.067,1.068-2.343,1.899-3.83,2.496c-1.487,0.599-3.119,0.898-4.899,0.898c-1.745,0-3.363-0.3-4.848-0.898c-1.487-0.597-2.763-1.428-3.833-2.496c-1.066-1.068-1.897-2.327-2.497-3.785c-0.599-1.455-0.899-3.037-0.899-4.75c0-1.714,0.3-3.296,0.899-4.751c0.599-1.457,1.43-2.717,2.497-3.785c1.069-1.066,2.345-1.899,3.833-2.497c1.485-0.598,3.103-0.9,4.848-0.9c1.78,0,3.412,0.302,4.899,0.9c1.487,0.597,2.763,1.431,3.83,2.497c1.069,1.068,1.9,2.328,2.499,3.785C147.239,22.598,147.539,24.18,147.539,25.894"/><path fill="#211E24" d="M156.461,25.894c0,1.262,0.193,2.446,0.583,3.564c0.386,1.114,0.943,2.083,1.671,2.91c0.727,0.824,1.626,1.472,2.69,1.939c1.068,0.468,2.28,0.705,3.639,0.705c1.262,0,2.426-0.237,3.492-0.705c1.066-0.467,1.988-1.107,2.763-1.917c0.777-0.805,1.383-1.768,1.818-2.881c0.438-1.117,0.655-2.321,0.655-3.615c0-1.294-0.217-2.496-0.655-3.613c-0.436-1.115-1.041-2.084-1.818-2.909c-0.775-0.823-1.697-1.468-2.763-1.939c-1.066-0.467-2.23-0.703-3.492-0.703c-1.358,0-2.57,0.24-3.639,0.726c-1.064,0.484-1.963,1.14-2.69,1.964c-0.728,0.827-1.285,1.796-1.671,2.91C156.655,23.444,156.461,24.633,156.461,25.894 M173.288,33.41c-0.97,1.455-2.229,2.555-3.781,3.3c-1.553,0.74-3.155,1.113-4.802,1.113c-1.777,0-3.386-0.308-4.826-0.92c-1.438-0.616-2.667-1.455-3.685-2.523c-1.018-1.066-1.812-2.329-2.376-3.781c-0.565-1.455-0.848-3.021-0.848-4.705c0-1.681,0.283-3.249,0.848-4.706c0.565-1.452,1.358-2.715,2.376-3.781c1.018-1.066,2.247-1.908,3.685-2.52c1.439-0.615,3.048-0.924,4.826-0.924c1.647,0,3.249,0.379,4.802,1.142c1.553,0.76,2.812,1.882,3.781,3.367h0.097V0.583h3.299v36.66h-3.299V33.41H173.288z"/><path fill="#211E24" d="M202.821,24.147c-0.099-2.133-0.783-3.901-2.062-5.31c-1.276-1.405-3.097-2.108-5.456-2.108c-1.101,0-2.117,0.2-3.058,0.604c-0.936,0.403-1.76,0.957-2.471,1.648c-0.712,0.697-1.278,1.488-1.697,2.376c-0.42,0.889-0.665,1.819-0.729,2.789H202.821z M206.166,25.215v0.726c0,0.261-0.015,0.535-0.048,0.827h-18.816c0.035,1.133,0.26,2.197,0.678,3.199c0.421,1.001,1.002,1.877,1.748,2.617c0.741,0.745,1.615,1.334,2.616,1.774c1.003,0.436,2.088,0.655,3.249,0.655c1.715,0,3.195-0.396,4.439-1.189c1.243-0.793,2.188-1.707,2.837-2.74l2.472,1.937c-1.357,1.716-2.854,2.944-4.486,3.689c-1.632,0.74-3.386,1.113-5.262,1.113c-1.68,0-3.241-0.298-4.677-0.898c-1.439-0.597-2.675-1.429-3.711-2.496c-1.037-1.068-1.851-2.326-2.448-3.781c-0.601-1.458-0.899-3.043-0.899-4.754c0-1.714,0.294-3.296,0.873-4.752c0.583-1.455,1.391-2.715,2.426-3.781c1.033-1.068,2.246-1.902,3.637-2.501c1.388-0.596,2.894-0.898,4.51-0.898c1.777,0,3.345,0.302,4.704,0.898c1.358,0.6,2.489,1.407,3.395,2.428c0.904,1.017,1.595,2.204,2.06,3.562C205.932,22.208,206.166,23.662,206.166,25.215"/><path fill="#71A2B9" d="M222.848,17.312h-5.333v19.931h-3.297V17.312h-4.753v-2.764h4.753V8.339c0-2.585,0.628-4.62,1.89-6.108C217.37,0.744,219.31,0,221.926,0c0.42,0,0.873,0.021,1.358,0.07c0.484,0.048,0.938,0.139,1.358,0.271l-0.581,2.906c-0.356-0.097-0.714-0.176-1.066-0.24c-0.359-0.067-0.762-0.099-1.212-0.099c-0.877,0-1.596,0.147-2.161,0.436c-0.565,0.292-1.002,0.703-1.309,1.24c-0.305,0.533-0.518,1.156-0.629,1.868c-0.115,0.708-0.17,1.469-0.17,2.275v5.822h5.333V17.312z"/><path fill="#71A2B9" d="M246.608,25.894c0-1.259-0.201-2.447-0.606-3.563c-0.401-1.119-0.977-2.087-1.72-2.91c-0.744-0.826-1.649-1.482-2.716-1.966c-1.067-0.483-2.266-0.729-3.589-0.729c-1.327,0-2.516,0.245-3.564,0.729c-1.053,0.484-1.948,1.14-2.691,1.966c-0.744,0.822-1.316,1.791-1.722,2.91c-0.404,1.116-0.605,2.304-0.605,3.563c0,1.262,0.201,2.446,0.605,3.564c0.405,1.116,0.978,2.085,1.722,2.91c0.743,0.826,1.639,1.47,2.691,1.939c1.049,0.47,2.237,0.705,3.564,0.705c1.323,0,2.521-0.235,3.589-0.705c1.066-0.47,1.972-1.113,2.716-1.939c0.743-0.825,1.318-1.794,1.72-2.91C246.407,28.34,246.608,27.156,246.608,25.894 M250.1,25.894c0,1.713-0.3,3.295-0.896,4.75c-0.6,1.458-1.431,2.717-2.499,3.785c-1.066,1.068-2.343,1.899-3.83,2.496c-1.486,0.599-3.12,0.898-4.897,0.898c-1.746,0-3.363-0.3-4.849-0.898c-1.487-0.597-2.765-1.428-3.831-2.496c-1.068-1.068-1.901-2.327-2.498-3.785c-0.6-1.455-0.897-3.037-0.897-4.75c0-1.714,0.298-3.296,0.897-4.751c0.597-1.457,1.43-2.717,2.498-3.785c1.066-1.066,2.344-1.899,3.831-2.497c1.485-0.598,3.103-0.9,4.849-0.9c1.777,0,3.411,0.302,4.897,0.9c1.487,0.597,2.764,1.431,3.83,2.497c1.068,1.068,1.899,2.328,2.499,3.785C249.8,22.598,250.1,24.18,250.1,25.894"/><path fill="#71A2B9" d="M273.668,37.239c-0.063-0.61-0.113-1.293-0.145-2.033c-0.03-0.745-0.049-1.358-0.049-1.845h-0.097c-0.647,1.327-1.697,2.402-3.154,3.225c-1.453,0.823-2.991,1.239-4.604,1.239c-2.881,0-5.036-0.859-6.476-2.571c-1.438-1.713-2.157-3.977-2.157-6.789V14.547h3.298v12.561c0,1.197,0.097,2.278,0.29,3.248c0.195,0.969,0.524,1.801,0.993,2.498c0.47,0.696,1.102,1.237,1.894,1.625c0.79,0.387,1.787,0.583,2.98,0.583c0.875,0,1.723-0.178,2.546-0.534c0.824-0.357,1.562-0.899,2.21-1.624c0.644-0.73,1.163-1.65,1.548-2.765c0.39-1.117,0.583-2.435,0.583-3.955V14.547h3.297v17.7c0,0.616,0.017,1.405,0.05,2.375c0.031,0.969,0.08,1.846,0.144,2.617H273.668z"/><path fill="#71A2B9" d="M296.857,14.424c-0.931-0.305-1.886-0.479-2.875-0.479c-2.878,0-4.918,0.856-6.354,2.567c-1.438,1.716-2.036,3.978-2.036,6.792v14.386h3.219V24.66c0-1.196,0.016-2.281,0.206-3.248c0.196-0.969,0.486-1.806,0.955-2.498c0.47-0.696,1.078-1.234,1.87-1.626c0.792-0.386,1.777-0.579,2.973-0.579c0.705,0,0.566,0.094,1.235,0.323L296.857,14.424z"/><rect x="29.41" y="14.545" opacity="0.2" fill="#71A2B9" width="3.297" height="22.694"/><path opacity="0.2" fill="#71A2B9" d="M51.909,13.964c-1.746,0-3.362,0.3-4.85,0.898c-1.487,0.6-2.762,1.431-3.83,2.497c-1.066,1.065-1.898,2.328-2.496,3.785c-0.6,1.455-0.9,3.039-0.9,4.751c0,1.713,0.3,3.295,0.9,4.752c0.598,1.455,1.429,2.714,2.496,3.782c1.068,1.068,2.343,1.899,3.83,2.496c1.488,0.599,3.104,0.9,4.85,0.9c1.778,0,3.411-0.302,4.898-0.9c1.487-0.597,2.765-1.428,3.832-2.496c1.066-1.068,1.898-2.327,2.498-3.782c0.597-1.457,0.895-3.039,0.895-4.752c0-1.712-0.298-3.296-0.895-4.751c-0.6-1.457-1.432-2.719-2.498-3.785c-1.067-1.066-2.345-1.897-3.832-2.497C55.32,14.264,53.688,13.964,51.909,13.964 M51.909,35.013c-1.325,0-2.514-0.237-3.562-0.705c-1.053-0.467-1.95-1.118-2.692-1.939c-0.745-0.827-1.319-1.794-1.722-2.91c-0.405-1.116-0.607-2.303-0.607-3.564c0-1.259,0.203-2.447,0.607-3.565c0.402-1.114,0.977-2.083,1.722-2.911c0.742-0.822,1.639-1.478,2.692-1.962c1.049-0.486,2.238-0.729,3.562-0.729c1.327,0,2.522,0.243,3.588,0.729c1.068,0.484,1.974,1.14,2.716,1.962c0.743,0.829,1.317,1.797,1.722,2.911c0.405,1.118,0.607,2.307,0.607,3.565c0,1.262-0.202,2.449-0.607,3.564c-0.404,1.116-0.979,2.083-1.722,2.91c-0.742,0.821-1.648,1.472-2.716,1.939C54.431,34.775,53.236,35.013,51.909,35.013"/><path opacity="0.2" fill="#71A2B9" d="M81.539,13.964c-1.745,0-3.362,0.3-4.847,0.898c-1.491,0.6-2.766,1.431-3.833,2.497c-1.067,1.065-1.899,2.328-2.497,3.785c-0.6,1.455-0.899,3.039-0.899,4.751c0,1.713,0.299,3.295,0.899,4.752c0.598,1.455,1.43,2.714,2.497,3.782c1.067,1.068,2.342,1.899,3.833,2.496c1.485,0.599,3.102,0.9,4.847,0.9c1.777,0,3.409-0.302,4.896-0.9c1.487-0.597,2.766-1.428,3.833-2.496c1.066-1.068,1.899-2.327,2.499-3.782c0.598-1.457,0.897-3.039,0.897-4.752c0-1.712-0.299-3.296-0.897-4.751c-0.6-1.457-1.432-2.719-2.499-3.785c-1.066-1.066-2.345-1.897-3.833-2.497C84.948,14.264,83.316,13.964,81.539,13.964 M81.539,35.013c-1.326,0-2.515-0.237-3.563-0.705c-1.053-0.467-1.949-1.118-2.692-1.939c-0.744-0.827-1.319-1.794-1.722-2.91c-0.404-1.116-0.606-2.303-0.606-3.564c0-1.259,0.202-2.447,0.606-3.565c0.403-1.114,0.978-2.083,1.722-2.911c0.743-0.822,1.639-1.478,2.692-1.962c1.048-0.486,2.237-0.729,3.563-0.729s2.521,0.243,3.588,0.729c1.067,0.484,1.973,1.14,2.715,1.962c0.745,0.829,1.318,1.797,1.722,2.911c0.405,1.118,0.607,2.307,0.607,3.565c0,1.262-0.203,2.449-0.607,3.564c-0.404,1.116-0.977,2.083-1.722,2.91c-0.742,0.821-1.648,1.472-2.715,1.939C84.061,34.775,82.865,35.013,81.539,35.013"/><path opacity="0.2" fill="#71A2B9" d="M320.999,25.894c0-1.259-0.201-2.447-0.607-3.563c-0.404-1.119-0.977-2.087-1.721-2.91c-0.742-0.826-1.648-1.482-2.715-1.966c-1.066-0.483-2.266-0.729-3.588-0.729c-1.328,0-2.517,0.245-3.564,0.729c-1.054,0.484-1.949,1.14-2.691,1.966c-0.743,0.822-1.315,1.791-1.722,2.91c-0.405,1.116-0.607,2.304-0.607,3.563c0,1.262,0.202,2.446,0.607,3.564c0.406,1.116,0.979,2.085,1.722,2.91c0.742,0.826,1.638,1.47,2.691,1.939c1.048,0.47,2.236,0.705,3.564,0.705c1.322,0,2.521-0.235,3.588-0.705s1.973-1.113,2.715-1.939c0.744-0.825,1.316-1.794,1.721-2.91C320.798,28.34,320.999,27.156,320.999,25.894 M324.49,25.894c0,1.713-0.3,3.295-0.896,4.75c-0.6,1.458-1.431,2.717-2.498,3.785c-1.066,1.068-2.346,1.899-3.83,2.496c-1.49,0.599-3.123,0.898-4.898,0.898c-1.747,0-3.362-0.3-4.852-0.898c-1.483-0.597-2.763-1.428-3.829-2.496c-1.066-1.068-1.901-2.327-2.497-3.785c-0.6-1.455-0.896-3.037-0.896-4.75c0-1.714,0.297-3.296,0.896-4.751c0.596-1.457,1.431-2.717,2.497-3.785c1.066-1.066,2.346-1.899,3.829-2.497c1.489-0.598,3.104-0.9,4.852-0.9c1.775,0,3.408,0.302,4.898,0.9c1.484,0.597,2.764,1.431,3.83,2.497c1.067,1.068,1.898,2.328,2.498,3.785C324.19,22.598,324.49,24.18,324.49,25.894"/><rect x="331.619" y="14.545" opacity="0.2" fill="#71A2B9" width="3.297" height="22.694"/><path opacity="0.2" fill="#71A2B9" d="M362.752,25.894c0-1.259-0.202-2.447-0.607-3.563c-0.403-1.119-0.979-2.087-1.719-2.91c-0.747-0.826-1.652-1.482-2.719-1.966c-1.066-0.483-2.264-0.729-3.588-0.729c-1.326,0-2.515,0.245-3.563,0.729c-1.052,0.484-1.95,1.14-2.691,1.966c-0.744,0.822-1.316,1.791-1.722,2.91c-0.406,1.116-0.608,2.304-0.608,3.563c0,1.262,0.202,2.446,0.608,3.564c0.405,1.116,0.978,2.085,1.722,2.91c0.741,0.826,1.64,1.47,2.691,1.939c1.049,0.47,2.237,0.705,3.563,0.705c1.324,0,2.521-0.235,3.588-0.705s1.972-1.113,2.719-1.939c0.74-0.825,1.315-1.794,1.719-2.91C362.55,28.34,362.752,27.156,362.752,25.894 M366.241,25.894c0,1.713-0.3,3.295-0.896,4.75c-0.6,1.458-1.431,2.717-2.499,3.785c-1.065,1.068-2.34,1.899-3.829,2.496c-1.49,0.599-3.123,0.898-4.898,0.898c-1.743,0-3.362-0.3-4.849-0.898c-1.486-0.597-2.766-1.428-3.832-2.496c-1.066-1.068-1.901-2.327-2.497-3.785c-0.6-1.455-0.896-3.037-0.896-4.75c0-1.714,0.297-3.296,0.896-4.751c0.596-1.457,1.431-2.717,2.497-3.785c1.066-1.066,2.346-1.899,3.832-2.497c1.486-0.598,3.105-0.9,4.849-0.9c1.775,0,3.408,0.302,4.898,0.9c1.489,0.597,2.764,1.431,3.829,2.497c1.068,1.068,1.899,2.328,2.499,3.785C365.941,22.598,366.241,24.18,366.241,25.894"/><path opacity="0.2" fill="#71A2B9" d="M392.38,25.894c0-1.259-0.201-2.447-0.606-3.563c-0.406-1.119-0.979-2.087-1.719-2.91c-0.747-0.826-1.652-1.482-2.72-1.966c-1.065-0.483-2.264-0.729-3.587-0.729c-1.327,0-2.515,0.245-3.562,0.729c-1.054,0.484-1.951,1.14-2.694,1.966c-0.742,0.822-1.315,1.791-1.722,2.91c-0.405,1.116-0.605,2.304-0.605,3.563c0,1.262,0.2,2.446,0.605,3.564c0.406,1.116,0.979,2.085,1.722,2.91c0.743,0.826,1.641,1.47,2.694,1.939c1.048,0.47,2.235,0.705,3.562,0.705c1.323,0,2.521-0.235,3.587-0.705c1.067-0.47,1.973-1.113,2.72-1.939c0.74-0.825,1.312-1.794,1.719-2.91C392.179,28.34,392.38,27.156,392.38,25.894 M395.87,25.894c0,1.713-0.3,3.295-0.896,4.75c-0.6,1.458-1.431,2.717-2.499,3.785c-1.065,1.068-2.346,1.899-3.83,2.496c-1.49,0.599-3.122,0.898-4.897,0.898c-1.744,0-3.362-0.3-4.852-0.898c-1.483-0.597-2.764-1.428-3.829-2.496c-1.066-1.068-1.901-2.327-2.497-3.785c-0.6-1.455-0.897-3.037-0.897-4.75c0-1.714,0.298-3.296,0.897-4.751c0.596-1.457,1.431-2.717,2.497-3.785c1.065-1.066,2.346-1.899,3.829-2.497c1.489-0.598,3.107-0.9,4.852-0.9c1.775,0,3.407,0.302,4.897,0.9c1.484,0.597,2.765,1.431,3.83,2.497c1.068,1.068,1.899,2.328,2.499,3.785C395.57,22.598,395.87,24.18,395.87,25.894"/></svg>